Coordinates
version=1
nRows=9
nColumns=38
inDegrees=yes

Units are S.I. units (second, meters, Newtons, ...)
Angles are in degrees.

endheader
time	pelvis_tilt	pelvis_list	pelvis_rotation	pelvis_tx	pelvis_ty	pelvis_tz	hip_flexion_r	hip_adduction_r	hip_rotation_r	knee_angle_r	ankle_angle_r	subtalar_angle_r	mtp_angle_r	hip_flexion_l	hip_adduction_l	hip_rotation_l	knee_angle_l	ankle_angle_l	subtalar_angle_l	mtp_angle_l	lumbar_extension	lumbar_bending	lumbar_rotation	arm_flex_r	arm_add_r	arm_rot_r	elbow_flex_r	pro_sup_r	wrist_flex_r	wrist_dev_r	arm_flex_l	arm_add_l	arm_rot_l	elbow_flex_l	pro_sup_l	wrist_flex_l	wrist_dev_l
      1.39000000	      3.28142979	      3.20506929	     -5.02506377	      0.16688549	      0.92792385	     -0.26641101	      1.61026353	     -8.92777785	     -5.36815371	    -58.20877505	     -8.54032869	    -10.75275035	      0.00000000	     15.99325553	      3.29346138	     -8.55387962	    -25.50874699	      6.25190322	     -9.84332038	      0.00000000	    -13.88292874	     -3.16635885	      1.65899791	      2.76942413	     -7.33206867	     40.99149784	     28.83761317	     42.76017849	      0.00000000	      0.00000000	     -4.77121638	     -4.09504713	     41.23015291	     19.08761149	     42.76017849	      0.00000000	      0.00000000
      1.40000000	      3.55703939	      3.10109546	     -4.97878419	      0.17733895	      0.92904394	     -0.26783070	      3.20168938	     -8.85526143	     -4.99375483	    -60.64512792	     -8.04179776	    -11.20141933	      0.00000000	     14.99120266	      3.43121344	     -8.35697324	    -25.56419511	      7.06179188	     -9.91336892	      0.00000000	    -14.27273785	     -2.97268806	      1.06606254	      2.64651759	     -7.31290789	     41.03822138	     28.74847728	     42.76681347	      0.00000000	      0.00000000	     -4.03596232	     -4.13917726	     41.24476781	     19.26205850	     42.76681347	      0.00000000	      0.00000000
      1.41000000	      3.53858721	      3.21696255	     -5.01093778	      0.18745869	      0.93003404	     -0.26907349	      5.14861780	     -8.95115164	     -4.54657317	    -62.87050790	     -7.13982570	    -11.36287145	      0.00000000	     14.18190762	      3.72232500	     -8.39054627	    -25.28249197	      7.60796345	     -9.79801403	      0.00000000	    -14.29093759	     -3.04899402	      0.66945912	      3.63449544	     -7.03373720	     46.68459288	     25.37254755	     43.61194544	      0.00000000	      0.00000000	     -2.89419682	     -4.57092354	     45.42483043	     18.81204103	     43.61194544	      0.00000000	      0.00000000
      1.42000000	      3.75743579	      3.11277596	     -4.95335206	      0.19793381	      0.93163299	     -0.27028683	      6.64241638	     -8.76622040	     -4.27470939	    -64.57561226	     -6.41481560	    -11.63654653	      0.00000000	     13.07569551	      3.84117357	     -8.19261511	    -25.01256028	      8.17236060	     -9.75710548	      0.00000000	    -14.55675921	     -2.86586316	      0.18015242	      3.36347703	     -6.98437572	     46.70671242	     25.29319102	     43.61911681	      0.00000000	      0.00000000	     -2.05895980	     -4.63789884	     45.39658016	     18.96654311	     43.61911681	      0.00000000	      0.00000000
      1.43000000	      3.83421661	      3.00880498	     -4.80917581	      0.20808898	      0.93317555	     -0.27152387	      8.28930611	     -8.64329308	     -4.17354239	    -66.04960900	     -5.30492085	    -11.20374255	      0.00000000	     12.03263986	      3.94464074	     -8.04567167	    -24.52753826	      8.45299092	     -9.84072623	      0.00000000	    -14.68018259	     -2.65604922	     -0.25976415	      3.00356749	     -6.93319598	     46.71154641	     25.07805752	     43.63742301	      0.00000000	      0.00000000	     -1.10811830	     -4.76344349	     45.43540274	     19.23726558	     43.63742301	      0.00000000	      0.00000000
      1.44000000	      3.89329794	      2.75149626	     -4.60091157	      0.21808432	      0.93480457	     -0.27268938	      9.83254821	     -8.23500182	     -4.10971748	    -67.07532414	     -4.16430108	    -11.24464481	      0.00000000	     11.06295099	      3.89056810	     -7.72879523	    -24.13331161	      8.83478803	     -9.80402324	      0.00000000	    -14.80016117	     -2.27380992	     -0.75960776	      2.77000036	     -6.87666995	     46.72631998	     24.99012574	     43.64341079	      0.00000000	      0.00000000	     -0.17080743	     -4.86555903	     45.42114422	     19.43768291	     43.64341079	      0.00000000	      0.00000000
      1.45000000	      3.83720865	      2.50553116	     -4.38654068	      0.22799392	      0.93634285	     -0.27387113	     11.44759437	     -7.90268921	     -4.11970228	    -67.81282164	     -2.69636107	    -10.53468129	      0.00000000	     10.14927711	      3.83257898	     -7.51070455	    -23.56617955	      9.25003203	     -9.74369097	      0.00000000	    -14.75642638	     -1.88604210	     -1.12534686	      2.33972589	     -6.83644494	     46.72310668	     24.73734578	     43.66077315	      0.00000000	      0.00000000	      0.85088718	     -4.97978656	     45.51036813	     19.79466582	     43.66077315	      0.00000000	      0.00000000
      1.46000000	      3.83293452	      2.24387671	     -4.17448795	      0.23786319	      0.93787540	     -0.27491225	     12.93100379	     -7.46325068	     -4.14362834	    -68.18280158	     -1.49770827	    -10.58951974	      0.00000000	      9.20685854	      3.71720738	     -7.35945585	    -23.07911349	      9.47156718	     -9.72785346	      0.00000000	    -14.77766490	     -1.49766451	     -1.58063558	      2.08671223	     -6.78813144	     46.73893171	     24.66070015	     43.66527323	      0.00000000	      0.00000000	      1.80390102	     -5.08190754	     45.49239366	     19.99362804	     43.66527323	      0.00000000	      0.00000000
      1.47000000	      3.77222910	      1.87852564	     -4.01200191	      0.24764597	      0.93927843	     -0.27590302	     14.34272418	     -7.05659200	     -4.35452341	    -68.17775704	      0.29635300	     -9.79981148	      0.00000000	      8.26291417	      3.54066053	     -6.92709432	    -22.48515940	      9.78136750	     -9.90107540	      0.00000000	    -14.70173908	     -0.97647952	     -1.84615952	      1.63428682	     -6.77535548	     46.73270257	     24.42768513	     43.68123706	      0.00000000	      0.00000000	      2.88085342	     -5.18977419	     45.59981004	     20.38549147	     43.68123706	      0.00000000	      0.00000000
